<svg width="178" height="172" viewBox="0 0 178 172" fill="none" xmlns="http://www.w3.org/2000/svg">
<path d="M35.5479 46.25H31.7979V73.75H36.7979V47.5C36.7979 46.8096 36.2382 46.25 35.5479 46.25Z" fill="#EDBC00"/>
<path d="M45.5479 46.25H41.7979V73.75H46.7979V47.5C46.7979 46.8096 46.2382 46.25 45.5479 46.25Z" fill="#ED9400"/>
<path d="M55.5479 46.25H51.7979V73.75H56.7979V47.5C56.7979 46.8096 56.2382 46.25 55.5479 46.25Z" fill="#990045"/>
<path d="M62.4229 78.125H26.1729V41.875H62.4229V78.125Z" stroke="#001555" stroke-width="3.75"/>
<path d="M74.2979 55.9478V41.1148H77.6876V47.189H77.7559L82.1466 41.1148H85.8549L77.6876 51.8983V55.9478H74.2979ZM82.5561 55.9478L79.0981 49.0545L81.0774 46.4383L86.2644 55.9478H82.5561Z" fill="#3D5061"/>
<path d="M93.8995 56.2208C92.7316 56.2208 91.67 55.9933 90.7145 55.5382C89.7741 55.0681 89.0234 54.3932 88.4622 53.5135C87.9162 52.6187 87.6432 51.5494 87.6432 50.3058C87.6432 49.0773 87.9238 48.0232 88.485 47.1435C89.0461 46.2487 89.7741 45.5662 90.669 45.096C91.5638 44.6258 92.5117 44.3908 93.5127 44.3908C94.6805 44.3908 95.6588 44.6334 96.4475 45.1188C97.2361 45.5889 97.8276 46.2335 98.222 47.0525C98.6315 47.8563 98.8362 48.7739 98.8362 49.8053C98.8362 50.1086 98.8135 50.4043 98.768 50.6925C98.7376 50.9655 98.7073 51.1702 98.677 51.3068H90.123V49.0545H96.4247L95.9015 49.6915C95.9015 48.7815 95.7043 48.099 95.31 47.644C94.9308 47.1738 94.3696 46.9387 93.6265 46.9387C93.0805 46.9387 92.6027 47.0601 92.1932 47.3028C91.7837 47.5454 91.4652 47.917 91.2377 48.4175C91.0102 48.918 90.8965 49.5474 90.8965 50.3058C90.8965 51.0793 91.033 51.7163 91.306 52.2168C91.579 52.7021 91.9733 53.0661 92.489 53.3088C93.0046 53.5514 93.6265 53.6728 94.3545 53.6728C94.8701 53.6728 95.3555 53.6045 95.8105 53.468C96.2806 53.3315 96.766 53.1343 97.2665 52.8765L98.3812 54.9012C97.729 55.3108 97.0086 55.6368 96.22 55.8795C95.4313 56.107 94.6578 56.2208 93.8995 56.2208Z" fill="#3D5061"/>
<path d="M101.671 55.9478V44.6638H104.401L104.651 46.1653H104.742C105.228 45.6799 105.781 45.2628 106.403 44.914C107.04 44.5652 107.783 44.3908 108.633 44.3908C109.907 44.3908 110.839 44.8003 111.431 45.6193C112.022 46.4383 112.318 47.5606 112.318 48.9862V55.9478H108.974V49.4185C108.974 48.6602 108.845 48.1066 108.587 47.7578C108.344 47.4089 107.92 47.2345 107.313 47.2345C106.858 47.2345 106.456 47.3407 106.107 47.553C105.774 47.7502 105.41 48.0383 105.015 48.4175V55.9478H101.671Z" fill="#3D5061"/>
<path d="M119.498 56.2208C118.073 56.2208 116.92 55.6975 116.04 54.651C115.176 53.5893 114.743 52.1409 114.743 50.3058C114.743 49.0773 114.971 48.0232 115.426 47.1435C115.896 46.2638 116.503 45.5889 117.246 45.1188C117.989 44.6334 118.763 44.3908 119.566 44.3908C120.188 44.3908 120.727 44.4969 121.182 44.7093C121.637 44.9216 122.046 45.2173 122.41 45.5965H122.501L122.342 43.8448V40H125.686V55.9478H122.956L122.706 54.7875H122.638C122.228 55.197 121.743 55.5383 121.182 55.8113C120.636 56.0843 120.075 56.2208 119.498 56.2208ZM120.363 53.4908C120.742 53.4908 121.091 53.4149 121.409 53.2633C121.743 53.0964 122.054 52.8234 122.342 52.4443V47.8715C122.039 47.5985 121.728 47.4089 121.409 47.3028C121.106 47.1814 120.787 47.1208 120.454 47.1208C120.044 47.1208 119.665 47.2345 119.316 47.462C118.967 47.6895 118.687 48.0383 118.474 48.5085C118.277 48.9635 118.179 49.5474 118.179 50.2603C118.179 51.3674 118.368 52.1864 118.747 52.7173C119.127 53.2329 119.665 53.4908 120.363 53.4908Z" fill="#3D5061"/>
<path d="M129.954 55.9478V44.6638H132.684L132.957 47.1208H133.026C133.587 46.1956 134.262 45.5131 135.05 45.0733C135.854 44.6183 136.703 44.3908 137.598 44.3908C138.099 44.3908 138.501 44.4287 138.804 44.5045C139.123 44.5803 139.449 44.6941 139.782 44.8457L139.1 47.644C138.751 47.5378 138.432 47.462 138.144 47.4165C137.871 47.3558 137.522 47.3255 137.098 47.3255C136.4 47.3255 135.71 47.5303 135.028 47.9398C134.36 48.3493 133.784 49.0621 133.299 50.0782V55.9478H129.954Z" fill="#3D5061"/>
<path d="M146.052 56.2208C145.294 56.2208 144.634 56.0691 144.073 55.7658C143.527 55.4624 143.103 55.0529 142.799 54.5373C142.496 54.0216 142.344 53.4453 142.344 52.8083C142.344 51.5494 142.913 50.5863 144.05 49.919C145.203 49.2517 147.114 48.8422 149.783 48.6905C149.738 48.3417 149.624 48.0459 149.442 47.8033C149.26 47.5606 148.995 47.3786 148.646 47.2573C148.312 47.1207 147.888 47.0525 147.372 47.0525C147.008 47.0525 146.644 47.098 146.28 47.189C145.916 47.2648 145.537 47.3862 145.142 47.553C144.763 47.7047 144.361 47.8867 143.937 48.099L142.754 45.915C143.269 45.6117 143.808 45.3463 144.369 45.1188C144.945 44.8913 145.537 44.7168 146.143 44.5955C146.765 44.459 147.395 44.3908 148.032 44.3908C149.093 44.3908 150.003 44.5803 150.762 44.9595C151.52 45.3235 152.104 45.8847 152.513 46.643C152.923 47.3862 153.128 48.3341 153.128 49.4868V55.9478H150.398L150.147 54.6738H150.056C149.495 55.0984 148.873 55.4624 148.191 55.7658C147.508 56.0691 146.796 56.2208 146.052 56.2208ZM147.122 53.6273C147.622 53.6273 148.092 53.5287 148.532 53.3315C148.972 53.1192 149.389 52.8613 149.783 52.558V50.6925C148.676 50.7532 147.812 50.8669 147.19 51.0338C146.583 51.2006 146.159 51.4129 145.916 51.6708C145.673 51.9286 145.552 52.2243 145.552 52.558C145.552 52.7855 145.613 52.9827 145.734 53.1495C145.87 53.3163 146.052 53.4377 146.28 53.5135C146.523 53.5893 146.803 53.6273 147.122 53.6273Z" fill="#3D5061"/>
<path d="M74.2979 78.6685V63.8355H77.6421V75.8475H84.2396V78.6685H74.2979Z" fill="#3D5061"/>
<path d="M90.6007 78.9415C89.8424 78.9415 89.1826 78.7898 88.6215 78.4865C88.0755 78.1832 87.6508 77.7737 87.3475 77.258C87.0441 76.7423 86.8925 76.166 86.8925 75.529C86.8925 74.2702 87.4612 73.3071 88.5987 72.6398C89.7514 71.9724 91.6624 71.5629 94.3317 71.4113C94.2862 71.0624 94.1725 70.7667 93.9905 70.524C93.8085 70.2813 93.543 70.0993 93.1942 69.978C92.8605 69.8415 92.4359 69.7733 91.9202 69.7733C91.5562 69.7733 91.1922 69.8188 90.8282 69.9098C90.4642 69.9856 90.085 70.1069 89.6907 70.2738C89.3115 70.4254 88.9096 70.6074 88.485 70.8198L87.302 68.6358C87.8176 68.3324 88.356 68.067 88.9172 67.8395C89.4935 67.612 90.085 67.4376 90.6917 67.3163C91.3135 67.1798 91.943 67.1115 92.58 67.1115C93.6416 67.1115 94.5516 67.3011 95.31 67.6803C96.0683 68.0443 96.6522 68.6054 97.0617 69.3638C97.4712 70.1069 97.676 71.0548 97.676 72.2075V78.6685H94.946L94.6957 77.3945H94.6047C94.0435 77.8192 93.4217 78.1832 92.7392 78.4865C92.0567 78.7898 91.3439 78.9415 90.6007 78.9415ZM91.67 76.348C92.1705 76.348 92.6406 76.2494 93.0805 76.0523C93.5203 75.8399 93.9374 75.5821 94.3317 75.2788V73.4133C93.2245 73.4739 92.36 73.5877 91.7382 73.7545C91.1315 73.9213 90.7069 74.1337 90.4642 74.3915C90.2215 74.6493 90.1002 74.9451 90.1002 75.2788C90.1002 75.5063 90.1609 75.7034 90.2822 75.8703C90.4187 76.0371 90.6007 76.1584 90.8282 76.2343C91.0709 76.3101 91.3515 76.348 91.67 76.348Z" fill="#3D5061"/>
<path d="M106.835 78.9415C106.32 78.9415 105.789 78.8126 105.243 78.5548C104.712 78.2969 104.219 77.9253 103.764 77.44H103.673L103.4 78.6685H100.784V62.7208H104.128V66.6338L104.014 68.4083H104.083C104.522 67.9988 105.008 67.6803 105.539 67.4528C106.085 67.2253 106.631 67.1115 107.177 67.1115C108.132 67.1115 108.943 67.3466 109.611 67.8168C110.293 68.2869 110.817 68.9543 111.181 69.8188C111.545 70.6681 111.727 71.6691 111.727 72.8218C111.727 74.1109 111.491 75.2181 111.021 76.1433C110.566 77.0533 109.967 77.7509 109.224 78.2363C108.481 78.7064 107.685 78.9415 106.835 78.9415ZM106.085 76.2115C106.494 76.2115 106.866 76.0978 107.199 75.8703C107.533 75.6428 107.798 75.2863 107.996 74.801C108.193 74.3005 108.291 73.6635 108.291 72.89C108.291 72.2075 108.215 71.6463 108.064 71.2065C107.912 70.7515 107.685 70.4103 107.381 70.1828C107.093 69.9553 106.706 69.8415 106.221 69.8415C105.857 69.8415 105.501 69.9249 105.152 70.0918C104.818 70.2434 104.477 70.5088 104.128 70.888V75.4608C104.447 75.7186 104.773 75.9082 105.106 76.0295C105.455 76.1508 105.781 76.2115 106.085 76.2115Z" fill="#3D5061"/>
<path d="M119.521 78.9415C118.52 78.9415 117.527 78.7747 116.541 78.441C115.555 78.0922 114.706 77.6827 113.993 77.2125L115.426 75.1195C116.108 75.5593 116.829 75.893 117.587 76.1205C118.361 76.348 119.157 76.4618 119.976 76.4618C120.598 76.4618 121.053 76.3708 121.341 76.1888C121.629 75.9916 121.773 75.7641 121.773 75.5063C121.773 75.3394 121.728 75.2029 121.637 75.0968C121.561 74.9754 121.417 74.8693 121.204 74.7783C121.007 74.6721 120.727 74.5735 120.363 74.4825C120.014 74.3915 119.559 74.2853 118.998 74.164C117.466 73.8303 116.366 73.3753 115.699 72.799C115.032 72.2227 114.698 71.5023 114.698 70.6378C114.698 69.5761 115.161 68.7268 116.086 68.0898C117.011 67.4376 118.277 67.1115 119.885 67.1115C120.901 67.1115 121.819 67.2783 122.638 67.612C123.472 67.9305 124.185 68.2793 124.776 68.6585L123.275 70.6605C122.714 70.3117 122.114 70.0463 121.477 69.8643C120.84 69.6823 120.211 69.5913 119.589 69.5913C119.24 69.5913 118.952 69.6292 118.725 69.705C118.497 69.7657 118.323 69.8718 118.201 70.0235C118.08 70.16 118.019 70.3117 118.019 70.4785C118.019 70.7818 118.217 71.0093 118.611 71.161C119.005 71.2975 119.68 71.4719 120.636 71.6843C121.788 71.9421 122.691 72.2378 123.343 72.5715C123.995 72.9052 124.443 73.2919 124.685 73.7318C124.943 74.1564 125.072 74.6797 125.072 75.3015C125.072 75.984 124.86 76.5983 124.435 77.1443C124.025 77.6903 123.404 78.1301 122.569 78.4638C121.75 78.7823 120.734 78.9415 119.521 78.9415Z" fill="#3D5061"/>
<path d="M30.4957 128V121.248C30.5064 120.949 30.5171 120.629 30.5277 120.288C30.5491 119.936 30.5651 119.616 30.5757 119.328H30.4957C30.3357 119.584 30.1597 119.845 29.9677 120.112C29.7864 120.368 29.6104 120.624 29.4397 120.88L26.9917 124.032H33.5037V125.28H25.3277V124.208L30.2077 117.792H31.9837V128H30.4957ZM39.1135 128.192C38.3561 128.192 37.6948 127.984 37.1295 127.568C36.5748 127.152 36.1428 126.549 35.8335 125.76C35.5348 124.96 35.3855 123.995 35.3855 122.864C35.3855 121.147 35.7215 119.845 36.3935 118.96C37.0655 118.064 37.9721 117.616 39.1135 117.616C40.2655 117.616 41.1721 118.064 41.8335 118.96C42.5055 119.845 42.8415 121.147 42.8415 122.864C42.8415 123.995 42.6868 124.96 42.3775 125.76C42.0788 126.549 41.6521 127.152 41.0975 127.568C40.5428 127.984 39.8815 128.192 39.1135 128.192ZM39.1135 126.928C39.5508 126.928 39.9401 126.789 40.2815 126.512C40.6228 126.235 40.8895 125.797 41.0815 125.2C41.2841 124.592 41.3855 123.813 41.3855 122.864C41.3855 121.915 41.2841 121.147 41.0815 120.56C40.8895 119.963 40.6228 119.531 40.2815 119.264C39.9401 118.997 39.5508 118.864 39.1135 118.864C38.6761 118.864 38.2868 118.997 37.9455 119.264C37.6041 119.531 37.3321 119.963 37.1295 120.56C36.9375 121.147 36.8415 121.915 36.8415 122.864C36.8415 123.813 36.9375 124.592 37.1295 125.2C37.3321 125.797 37.6041 126.235 37.9455 126.512C38.2868 126.789 38.6761 126.928 39.1135 126.928ZM39.1135 123.888C38.8361 123.888 38.5908 123.792 38.3775 123.6C38.1641 123.397 38.0575 123.125 38.0575 122.784C38.0575 122.432 38.1641 122.16 38.3775 121.968C38.5908 121.776 38.8361 121.68 39.1135 121.68C39.4015 121.68 39.6468 121.776 39.8495 121.968C40.0628 122.16 40.1695 122.432 40.1695 122.784C40.1695 123.125 40.0628 123.397 39.8495 123.6C39.6468 123.792 39.4015 123.888 39.1135 123.888ZM46.8032 126.304L46.0352 125.776L47.7312 123.168L45.1712 122.048L45.4432 121.216L48.1152 122.048L48.2592 119.056H49.1552L49.2992 122.048L51.9712 121.216L52.2432 122.048L49.6832 123.168L51.3792 125.776L50.6112 126.304L48.7072 123.824L46.8032 126.304ZM59.277 128V121.248C59.2876 120.949 59.2983 120.629 59.309 120.288C59.3303 119.936 59.3463 119.616 59.357 119.328H59.277C59.117 119.584 58.941 119.845 58.749 120.112C58.5676 120.368 58.3916 120.624 58.221 120.88L55.773 124.032H62.285V125.28H54.109V124.208L58.989 117.792H60.765V128H59.277ZM67.8947 128.192C67.1374 128.192 66.4761 127.984 65.9107 127.568C65.3561 127.152 64.9241 126.549 64.6147 125.76C64.3161 124.96 64.1667 123.995 64.1667 122.864C64.1667 121.147 64.5027 119.845 65.1747 118.96C65.8467 118.064 66.7534 117.616 67.8947 117.616C69.0467 117.616 69.9534 118.064 70.6147 118.96C71.2867 119.845 71.6227 121.147 71.6227 122.864C71.6227 123.995 71.4681 124.96 71.1587 125.76C70.8601 126.549 70.4334 127.152 69.8787 127.568C69.3241 127.984 68.6627 128.192 67.8947 128.192ZM67.8947 126.928C68.3321 126.928 68.7214 126.789 69.0627 126.512C69.4041 126.235 69.6707 125.797 69.8627 125.2C70.0654 124.592 70.1667 123.813 70.1667 122.864C70.1667 121.915 70.0654 121.147 69.8627 120.56C69.6707 119.963 69.4041 119.531 69.0627 119.264C68.7214 118.997 68.3321 118.864 67.8947 118.864C67.4574 118.864 67.0681 118.997 66.7267 119.264C66.3854 119.531 66.1134 119.963 65.9107 120.56C65.7187 121.147 65.6227 121.915 65.6227 122.864C65.6227 123.813 65.7187 124.592 65.9107 125.2C66.1134 125.797 66.3854 126.235 66.7267 126.512C67.0681 126.789 67.4574 126.928 67.8947 126.928ZM67.8947 123.888C67.6174 123.888 67.3721 123.792 67.1587 123.6C66.9454 123.397 66.8387 123.125 66.8387 122.784C66.8387 122.432 66.9454 122.16 67.1587 121.968C67.3721 121.776 67.6174 121.68 67.8947 121.68C68.1827 121.68 68.4281 121.776 68.6307 121.968C68.8441 122.16 68.9507 122.432 68.9507 122.784C68.9507 123.125 68.8441 123.397 68.6307 123.6C68.4281 123.792 68.1827 123.888 67.8947 123.888ZM74.0965 131.2V120.176H75.3925L75.5205 121.136H75.5685C75.9205 120.805 76.3258 120.533 76.7845 120.32C77.2431 120.096 77.7071 119.984 78.1765 119.984C78.8698 119.984 79.4511 120.149 79.9205 120.48C80.4005 120.811 80.7631 121.275 81.0085 121.872C81.2645 122.469 81.3925 123.168 81.3925 123.968C81.3925 124.864 81.2271 125.627 80.8965 126.256C80.5658 126.885 80.1338 127.365 79.6005 127.696C79.0671 128.027 78.4911 128.192 77.8725 128.192C77.5205 128.192 77.1418 128.107 76.7365 127.936C76.3418 127.765 75.9791 127.531 75.6485 127.232H75.6005L75.6805 128.64V131.2H74.0965ZM77.5685 126.88C77.9845 126.88 78.3578 126.768 78.6885 126.544C79.0191 126.32 79.2805 125.995 79.4725 125.568C79.6645 125.131 79.7605 124.603 79.7605 123.984C79.7605 123.44 79.6858 122.971 79.5365 122.576C79.3978 122.171 79.1845 121.861 78.8965 121.648C78.6085 121.424 78.2245 121.312 77.7445 121.312C77.4245 121.312 77.0885 121.397 76.7365 121.568C76.3845 121.728 76.0325 121.995 75.6805 122.368V126.064C76.0111 126.352 76.3471 126.56 76.6885 126.688C77.0298 126.816 77.3231 126.88 77.5685 126.88ZM83.1942 128L86.1062 123.936L83.4022 120.176H85.1302L86.2662 121.776C86.4049 121.989 86.5489 122.213 86.6982 122.448C86.8582 122.672 87.0076 122.891 87.1462 123.104H87.2102C87.3489 122.891 87.4876 122.667 87.6262 122.432C87.7756 122.197 87.9142 121.973 88.0422 121.76L89.0822 120.176H90.7622L88.0422 124.096L90.9542 128H89.2262L87.9782 126.336C87.8289 126.112 87.6689 125.877 87.4982 125.632C87.3276 125.387 87.1569 125.152 86.9862 124.928H86.9222C86.7729 125.163 86.6236 125.397 86.4742 125.632C86.3249 125.856 86.1756 126.091 86.0262 126.336L84.8742 128H83.1942Z" fill="#3D5061"/>
</svg>
